<?xml version="1.0" encoding="utf-8"?>
<!-- Generator: Adobe Illustrator 25.0.1, SVG Export Plug-In . SVG Version: 6.00 Build 0)  -->
<svg version="1.1" id="Capa_1" xmlns="http://www.w3.org/2000/svg" xmlns:xlink="http://www.w3.org/1999/xlink" x="0px" y="0px"
	 viewBox="0 0 60 60" style="enable-background:new 0 0 60 60;" xml:space="preserve">
<style type="text/css">
	.st0{fill:#FFD643;stroke:#FFD643;stroke-width:4;stroke-miterlimit:10;}
</style>
<g>
	<path class="st0" d="M30,5C16.3,5,5,16.3,5,30s11.3,25,25,25s25-11.3,25-25S43.8,5,30,5z M30,53.3C17.2,53.3,6.7,42.8,6.7,30
		S17.2,6.7,30,6.7S53.3,17.2,53.3,30S42.8,53.3,30,53.3z"/>
	<path class="st0" d="M30,10c-0.5,0-0.8,0.3-0.8,0.8V30H16.7c-0.5,0-0.8,0.3-0.8,0.8c0,0.5,0.3,0.8,0.8,0.8H30
		c0.5,0,0.8-0.3,0.8-0.8v-20C30.8,10.3,30.5,10,30,10z"/>
</g>
</svg>
